<svg id="Layer_1" data-name="Layer 1" xmlns="http://www.w3.org/2000/svg" viewBox="0 0 750.59 743.05"><defs><style>.cls-1,.cls-2{fill:#fff;}.cls-2{stroke:#fff;stroke-miterlimit:10;}</style></defs><title>bacteria</title><g id="bacteria.psd"><path class="cls-1" d="M570.17,637.2c-22.44,20.5-47.52,31.85-76.87,35.31v4.74c0,21.45.05,42.9,0,64.34,0,10.1-8.38,16.32-17.42,13.18-5.23-1.82-8.49-6.62-8.5-12.78q0-32.18,0-64.34v-5c-26.9-2.86-50.54-12.55-72.24-30.28a21.6,21.6,0,0,1-2.48,3.9C374.1,664.83,355.48,683.35,337,702c-3.76,3.78-8.14,5.27-13.11,3.77s-8.71-4.84-9.21-10c-.32-3.28.89-6.87,2.07-10.08.65-1.79,2.59-3.14,4-4.6q26.52-26.56,53.1-53.07a30.91,30.91,0,0,1,3.92-2.83c-20-24-30.09-50.92-31.49-81.69h-4.46q-34,0-68.06,0c-6.22,0-10.94-3.22-12.88-8.48s-.85-11,3.64-14.12a19.36,19.36,0,0,1,10.19-3.43c23.09-.29,46.19-.22,69.29-.07,3.22,0,4.43-.85,5.07-4.07a126.62,126.62,0,0,1,29.27-59.51c1-1.13,1.87-2.33,2.95-3.68-1.12-1.18-2.12-2.28-3.17-3.32Q357,425.58,335.86,404.43c-4.53-4.55-5.46-10.09-2.83-15.47,2.33-4.78,7.57-8,12.84-6.94a18.81,18.81,0,0,1,8.82,4.65c14.09,13.71,27.9,27.71,41.81,41.61,1.05,1.05,2.15,2,2.87,2.72l86.14-86.14a17.39,17.39,0,0,1-3.47-2.18q-20.49-20.35-40.86-40.81c-4.06-4.06-5.44-8.82-3.45-14.32a12.06,12.06,0,0,1,10.33-8.3,13,13,0,0,1,11.51,4.16c13.55,13.67,27.2,27.25,40.81,40.86,1.06,1.05,2.16,2.06,2.88,2.76l82.92-82.91c-.51-.55-1.46-1.64-2.49-2.67q-21.27-21.3-42.56-42.6c-4.43-4.46-5.29-10.21-2.59-15.51,2.4-4.71,7.75-7.94,13-6.73a19.43,19.43,0,0,1,8.77,4.78c14,13.63,27.7,27.52,41.49,41.34a37.88,37.88,0,0,1,2.52,3L685.06,145c-.44-.48-1.4-1.58-2.43-2.62q-20.55-20.57-41.11-41.14C637,96.66,636,90.52,638.85,85.36a12.55,12.55,0,0,1,14.76-6.2,17,17,0,0,1,6.8,4.29c13.61,13.42,27.08,27,40.6,40.49,1,1,2.15,2,3.4,3.21a133,133,0,0,1,32.1-22.42,123.35,123.35,0,0,1,36.68-11.68c3.08-.46,4-1.6,4-4.7q-.21-30.73,0-61.46c0-10,7.79-16.29,16.78-13.81,5.72,1.58,9.32,6.49,9.33,13q0,30.32,0,60.64v4.36c41.67,7.63,47.33,9.91,77.23,31.43a21.44,21.44,0,0,1,2.45-3.6q22.83-23,45.77-45.81c2.93-2.93,5.9-5.72,10.51-5.78a13.62,13.62,0,0,1,13,8.34c2.08,4.78,1.08,9.88-3,14q-23.71,23.82-47.53,47.54c-1.07,1.07-2.28,2-3.79,3.29a132.59,132.59,0,0,1,30.2,76.93H933q32.16,0,64.34,0c5.69,0,9.83,2.61,12,7.73a12.37,12.37,0,0,1-2.22,13.84c-2.8,3.17-6.39,4.38-10.66,4.36-21.58-.09-43.17,0-64.76,0H927c-4.3,27.55-15.64,51.49-34.76,71.8,1.2,1.25,2.2,2.35,3.24,3.39Q917,339.9,938.39,361.34c6.06,6.07,6.46,14.07,1,19.34S926,385.73,920,379.75q-21.46-21.4-42.85-42.89a23.09,23.09,0,0,1-2.45-3.44l-81,81c.77.82,1.76,1.92,2.8,3q20.85,20.86,41.7,41.72c6,6,6.35,13.93,1,19.37s-13.34,5-19.4-1c-14.87-14.87-29.73-29.75-44.2-44.24l-83,83c.45.48,1.42,1.58,2.46,2.62q21.87,21.89,43.73,43.77a12.84,12.84,0,0,1,2.68,15.14c-2.52,5.06-7.9,8.17-13.66,6.86a18.47,18.47,0,0,1-8.35-4.72c-14.35-14-28.48-28.29-42.64-42.52a25.56,25.56,0,0,1-2.49-3.32c-29,29-57.32,57.31-85.89,85.89.64.69,1.61,1.79,2.65,2.83l41.74,41.75c6,6,6.36,13.94,1,19.38s-13.35,5-19.41-1q-20.87-20.83-41.68-41.73A21.59,21.59,0,0,1,570.17,637.2ZM794,120.53c-.07-.38-21.63,2.23-32,5.16-18,5.07-32.74,15.59-45.87,28.74Q566.73,304,417.23,453.39c-3.5,3.49-7.07,6.94-10.34,10.64C377.13,497.64,369.61,536,386.5,577.32c28.55,69.94,119.08,87.17,172.56,33.69Q713.49,456.6,867.88,302.18q36.54-36.56,31.18-88C893.58,161.48,847.25,120.27,794,120.53Z" transform="translate(-259.99 -12.54)"/><path class="cls-2" d="M534.7,463.59c.73,21.38-16.92,40.17-38.44,40.93-22.37.8-41.34-16.67-42-38.65a40.27,40.27,0,0,1,39.3-41.75C515.65,423.35,533.93,440.89,534.7,463.59Z" transform="translate(-259.99 -12.54)"/><path class="cls-2" d="M833,183.53c-.05,16.54-13.84,30.38-30.1,30.2-17.12-.18-30.54-13.47-30.53-30.21a30.32,30.32,0,1,1,60.63,0Z" transform="translate(-259.99 -12.54)"/><path class="cls-2" d="M773.55,357a29.7,29.7,0,1,1-29.77-29.42A29.74,29.74,0,0,1,773.55,357Z" transform="translate(-259.99 -12.54)"/><path class="cls-2" d="M635,444.19A27.23,27.23,0,1,1,608,416.69,27.28,27.28,0,0,1,635,444.19Z" transform="translate(-259.99 -12.54)"/><path class="cls-2" d="M673.42,263.25c14,.3,25,11.51,24.63,25.05-.43,13.84-11.47,24.69-24.84,24.43-14-.28-25-11.49-24.63-25.05C648.92,273.94,660.09,263,673.42,263.25Z" transform="translate(-259.99 -12.54)"/><path class="cls-2" d="M456.75,549.66a24.13,24.13,0,1,1-24.18-24.06A24.19,24.19,0,0,1,456.75,549.66Z" transform="translate(-259.99 -12.54)"/><path class="cls-2" d="M778.49,273.88a23.51,23.51,0,1,1-24.09-23A23.55,23.55,0,0,1,778.49,273.88Z" transform="translate(-259.99 -12.54)"/><path class="cls-2" d="M607.73,356.5a20.41,20.41,0,1,1,20.67,20.58A20.41,20.41,0,0,1,607.73,356.5Z" transform="translate(-259.99 -12.54)"/><path class="cls-2" d="M589.93,544.15a19.18,19.18,0,1,1,19-19.26A19.21,19.21,0,0,1,589.93,544.15Z" transform="translate(-259.99 -12.54)"/><path class="cls-2" d="M513.64,601.07a18.56,18.56,0,1,1,18.58-18.51A18.52,18.52,0,0,1,513.64,601.07Z" transform="translate(-259.99 -12.54)"/><path class="cls-2" d="M872.55,233.68a17.33,17.33,0,1,1-17.49-17.45A17.31,17.31,0,0,1,872.55,233.68Z" transform="translate(-259.99 -12.54)"/><path class="cls-2" d="M697.51,431.51a14.83,14.83,0,1,1,15.38-14.39A14.82,14.82,0,0,1,697.51,431.51Z" transform="translate(-259.99 -12.54)"/><path class="cls-2" d="M729.33,198.92a14.82,14.82,0,1,1-15.17,14.18A14.94,14.94,0,0,1,729.33,198.92Z" transform="translate(-259.99 -12.54)"/><path class="cls-2" d="M833,288.12a14.85,14.85,0,1,1-14.82-15A14.9,14.9,0,0,1,833,288.12Z" transform="translate(-259.99 -12.54)"/><path class="cls-2" d="M536,380.18a14.23,14.23,0,1,1,14.57,14.22A14.28,14.28,0,0,1,536,380.18Z" transform="translate(-259.99 -12.54)"/></g></svg>