<svg id="Layer_1" data-name="Layer 1" xmlns="http://www.w3.org/2000/svg" viewBox="0 0 489.81 421.64"><defs><style>.cls-1{fill:#fff;}</style></defs><title>chat</title><path class="cls-1" d="M880.15,515.45c-10.94,31.72-9.43,60.55-6.44,74S881.53,616,886,630.94c-4.48-1.68-8.44-3-12.25-4.64-30.76-13.2-61.41-26.67-92.34-39.46-4.74-2-10.94-1.89-16.15-1-16.32,2.85-32.49,6.55-50.6,10.32l18.88-29.95a6.42,6.42,0,0,1,.72-1c4.39-4.49,51.72-11.12,57.69-8,18.25,9.64,36.45,19.36,55.53,29.49-2.53-17.29-5.25-32.86-7-48.54S843.43,508.91,853,496c24.68-33.42,39.45-69.63,27.09-112.29-10-34.53-32.06-59.63-62.28-77.26-97.94-57.14-200.39-49.16-280.1,29-18.43,18-31.54,39.5-34.2,66.18-.33,3.35-3.25,7.53-6.19,9.32-10,6.11-20.61,11.32-34.58,18.8,2.22-16.43,2.56-30.58,6.2-43.84,14.35-52.32,49.2-88.72,96.62-111.33,98.35-46.87,194.62-43.16,285.24,20.64a155.78,155.78,0,0,1,34,32.38C904.67,353.36,910.82,378,912,383a137.42,137.42,0,0,1,2.69,46.62,319,319,0,0,1-12,37.67C891.88,495,886.71,496.41,880.15,515.45Z" transform="translate(-425.74 -242.79)"/><path class="cls-1" d="M447.23,664.43c3.31-14.58,6.9-27.46,9-40.57,2.52-15.47-1.06-29.75-10.14-43C414.67,535.1,419.92,485,459.72,447c61.58-58.86,180-56.52,239.21,4.73,44.37,45.89,41.49,110.08-8.2,150.82C644,640.79,590.1,647.91,532.29,635.59a38.73,38.73,0,0,0-20.93,1.56C490.11,645.4,469.35,654.9,447.23,664.43Z" transform="translate(-425.74 -242.79)"/></svg>