<?xml version="1.0" encoding="utf-8"?>
<!-- Generator: Adobe Illustrator 22.0.1, SVG Export Plug-In . SVG Version: 6.00 Build 0)  -->
<svg version="1.1" id="Layer_1" xmlns="http://www.w3.org/2000/svg" xmlns:xlink="http://www.w3.org/1999/xlink" x="0px" y="0px"
	 viewBox="0 0 499.7 499.8" style="enable-background:new 0 0 499.7 499.8;" xml:space="preserve">
<style type="text/css">
	.st0{fill:#FFFFFF;}
</style>
<title>doctor</title>
<path class="st0" d="M361.6,419c-6.4,13.7-13.8,26-25.6,35.2c-15.3,11.9-29.7,11.5-44.3-1.1c-15.4-13.3-29-38.8-31.7-59.8
	c3.5-0.6,7.1-1,10.6-1.8c30.6-6.8,50.5-26.2,63.4-53.8c7.4-15.8,11.7-32.5,14.1-49.8c0.1-1,0.5-1.9,0.8-3.3c1,0.1,1.9,0.3,2.8,0.6
	c22,9.5,44.1,18.8,65.9,28.6c30,13.4,50.7,35.9,63.9,65.8c10.7,24.2,17.3,49.3,18.2,75.7c0.2,7.2-1.1,9.1-7.5,11.8
	c-24.5,10.4-50.3,16.3-76.5,20.5c-73.3,11.9-147.2,13.9-221.3,10.8c-48.6-2-97.1-6.1-144.5-17.9c-14.6-3.6-28.8-9.1-43.2-13.8
	c-4.4-1.5-6.9-4.5-6.7-9.3c1.6-40.7,13-78,38.2-110.5c9.3-12.3,21.5-22.2,35.4-28.8c25.5-11.8,51.4-22.8,77.1-34
	c0.7-0.2,1.3-0.3,2-0.3c1,5.5,1.9,11,3,16.5c4.9,23,12.6,44.9,28.4,63c13.9,15.9,30.8,26.4,52.1,28.6c5.4,0.5,5.7,3.8,6.5,7.6
	c5.9,28.1,18.8,52.2,41.5,70.4c17.1,13.7,38.8,14.5,57.2,2.5c16.5-10.8,27.1-26.3,35.4-43.7c1.5-3.1,3-4.7,6.7-5.3
	c15.7-2.9,25.5-16.1,24.5-32.2c-0.8-13.3-12.9-25.4-26.4-26.5c-15.6-1.3-29.1,8.3-32.3,23.7c-2.1,10.1,0.7,19.1,8,26.6
	C358.6,416.3,360,417.5,361.6,419z"/>
<path class="st0" d="M359.5,118.6c0,2.3,0.2,4.7,0,7c-0.6,5.9-1.3,11.2,4.5,15.9c3,2.5,4.2,8.3,4.7,12.7
	c3.9,29.9-7.3,54.7-26.6,76.7c-2,2.3-3.6,5.1-4.6,8c-8.7,26.4-23.5,48.1-47.7,62.5c-31.1,18.5-67.3,14.1-95-11.1
	c-15.7-14.3-26.1-31.8-32.6-51.8c-0.9-2.6-2.3-5.1-4.1-7.1c-17.6-19.9-28.9-42.4-27.6-69.6c0.3-6.8,1.1-15.2,5.3-19.6
	c5.7-6.1,5.2-12.2,5.5-18.9c0.8-14.6-0.1-29.5,2.7-43.8c8.1-42.4,35.2-67.1,76.7-76.2c30.3-6.6,59.6-2.8,87.7,10
	c17,7.7,27.7,20.3,30.6,39c0.2,1.5,0.8,2.8,1.8,3.9c11,9.9,14.5,23.3,16.8,37c1.4,8.4,1.8,16.9,2.6,25.3L359.5,118.6z"/>
<path class="st0" d="M172.5,288c45.9,52.2,112.5,50.9,156.9-2.4c-1,6-1.6,10.6-2.6,15.2c-3.3,15.7-9.5,30.6-18.2,44
	c-26,39.4-88.1,40.4-115.4,0.3C181.7,328.2,176.2,309.3,172.5,288z"/>
</svg>
