<svg id="Layer_1" data-name="Layer 1" xmlns="http://www.w3.org/2000/svg" viewBox="0 0 165.06 200"><defs><style>.cls-1{fill:#fff;}</style></defs><title>hand</title><path class="cls-1" d="M667,285c12.8,5,14.62,7.81,14.65,22,0,7.32.09,14.64.16,22,0,.28.27.57.71,1.44,3.48,0,7.26.1,11,0,7.2-.23,12.3,3,16.15,9a7.79,7.79,0,0,0,4.9,2.88,49.58,49.58,0,0,0,9,.12c5.66-.15,9.73,2.43,13.12,6.84a9.73,9.73,0,0,0,5.38,3c2.39.51,5,.1,7.47.13,9.61.11,15.93,5.44,16.47,15,.59,10.61-.26,21.32.53,31.92a106.59,106.59,0,0,1-10.14,54.58c-4,8.54-6.91,17.62-10.24,26.48A42,42,0,0,0,745,485H650c0-.17,0-.33,0-.5,2-15.5-2-28.92-11.25-41.85-11.76-16.49-22.08-34-32.36-51.53a37.49,37.49,0,0,1-4.61-16.47c-.58-10.86,10.8-17.84,22.74-13.88,5.51,1.82,10.4,5.57,16.07,8.72V308.11c0-14.88,2-17.85,15.37-23.11ZM654.29,446.06c4.92,7.6,9.07,15,7.5,24.47a7.14,7.14,0,0,0,.26,2.21c.58.27.87.52,1.15.52,23.5.07,47,.16,70.49,0,1.3,0,3.19-1.57,3.79-2.88,2.06-4.53,3.33-9.44,5.52-13.9a121.37,121.37,0,0,0,12.06-65.28c-.61-6.95.17-14-.29-21-.14-2.16-1.91-5.56-3.57-6-3.5-.93-7.42-.28-11.63-.28v16.48h-11.5c0-7.08.31-13.75-.18-20.37-.15-2.11-2.06-5.44-3.73-5.84-3.7-.89-7.76-.27-12.25-.27v15.34H700.83c0-2.24,0-4.06,0-5.88,0-4.66.17-9.35-.18-14-.25-3.32-1-7-5.3-7.37s-8.88-.08-13.91-.08v27.46H670v-5.64c0-20,0-40-.06-60,0-1.85-.62-5.16-1.4-5.3-4.26-.78-8.76-1.46-13-.82-3.88.58-3.57,4.56-3.56,7.8q0,48.24,0,96.49v5.76H640.63c0-5.33.11-10.16,0-15-.06-1.75-.18-4-1.22-5.13a157.88,157.88,0,0,0-14.05-14c-1.77-1.52-4.9-1.8-7.46-2-4.24-.28-5.72,2.16-4.49,6.07a36.85,36.85,0,0,0,3.27,8.26" transform="translate(-601.8 -285)"/></svg>