<?xml version="1.0" encoding="utf-8"?>
<!-- Generator: Adobe Illustrator 22.0.1, SVG Export Plug-In . SVG Version: 6.00 Build 0)  -->
<svg version="1.1" id="Layer_1" xmlns="http://www.w3.org/2000/svg" xmlns:xlink="http://www.w3.org/1999/xlink" x="0px" y="0px"
	 viewBox="0 0 512 512" style="enable-background:new 0 0 512 512;" xml:space="preserve">
<style type="text/css">
	.st0{fill:#FFFFFF;}
</style>
<g>
	<g>
		<g>
			<path class="st0" d="M198.2,178.2h28.3c3.7,0,6.6,3,6.6,6.6v28.3c0,3.7,3,6.6,6.6,6.6h32.5c3.7,0,6.6-3,6.6-6.6v-28.3
				c0-3.7,3-6.6,6.6-6.6h28.3c3.7,0,6.6-3,6.6-6.6V139c0-3.7-3-6.6-6.6-6.6h-28.3c-3.7,0-6.6-3-6.6-6.6V97.5c0-3.7-3-6.6-6.6-6.6
				h-32.5c-3.7,0-6.6,3-6.6,6.6v28.3c0,3.7-3,6.6-6.6,6.6h-28.3c-3.7,0-6.6,3-6.6,6.6v32.5C191.6,175.2,194.5,178.2,198.2,178.2z"/>
			<path class="st0" d="M450.6,54c0-29.8-24.2-54-54-54H115.4c-29.8,0-54,24.2-54,54V458c0,29.8,24.2,54,54,54h198
				c3.3,0,6.6-1.3,9.1-3.8l124.4-124.4c2.3-2.3,3.8-5.6,3.8-9.1V54L450.6,54z M326.2,468.2V416c0-15.7,12.7-28.4,28.4-28.4h52.2
				C398.3,396.2,334.6,459.9,326.2,468.2z M425,362h-70.3c-29.8,0-54,24.2-54,54v70.3H115.4C99.8,486.3,87,473.6,87,458V54
				c0-15.7,12.7-28.4,28.4-28.4h281.1c15.7,0,28.4,12.7,28.4,28.4L425,362L425,362z"/>
			<path class="st0" d="M374.5,284.2H137.5c-7.1,0-12.8,5.7-12.8,12.8c0,7.1,5.7,12.8,12.8,12.8h236.9c7.1,0,12.8-5.7,12.8-12.8
				C387.3,290,381.5,284.2,374.5,284.2z"/>
			<path class="st0" d="M268,347.5H137.5c-7.1,0-12.8,5.7-12.8,12.8c0,7.1,5.7,12.8,12.8,12.8H268c7.1,0,12.8-5.7,12.8-12.8
				C280.8,353.3,275.1,347.5,268,347.5z"/>
			<path class="st0" d="M268,410.8H137.5c-7.1,0-12.8,5.7-12.8,12.8s5.7,12.8,12.8,12.8H268c7.1,0,12.8-5.7,12.8-12.8
				C280.8,416.5,275.1,410.8,268,410.8z"/>
		</g>
	</g>
</g>
</svg>
