<?xml version="1.0" encoding="utf-8"?>
<!-- Generator: Adobe Illustrator 22.0.1, SVG Export Plug-In . SVG Version: 6.00 Build 0)  -->
<svg version="1.1"
	 id="svg3025" inkscape:version="0.48.3.1 r9886" sodipodi:docname="hospital_font_awesome.svg" xmlns:cc="http://creativecommons.org/ns#" xmlns:dc="http://purl.org/dc/elements/1.1/" xmlns:inkscape="http://www.inkscape.org/namespaces/inkscape" xmlns:rdf="http://www.w3.org/1999/02/22-rdf-syntax-ns#" xmlns:sodipodi="http://sodipodi.sourceforge.net/DTD/sodipodi-0.dtd" xmlns:svg="http://www.w3.org/2000/svg"
	 xmlns="http://www.w3.org/2000/svg" xmlns:xlink="http://www.w3.org/1999/xlink" x="0px" y="0px" viewBox="0 0 1366 768"
	 style="enable-background:new 0 0 1366 768;" xml:space="preserve">
<style type="text/css">
	.st0{fill:#FFFFFF;}
</style>
<sodipodi:namedview  bordercolor="#666666" borderopacity="1" gridtolerance="10" guidetolerance="10" id="namedview3031" inkscape:current-layer="svg3025" inkscape:cx="896" inkscape:cy="896" inkscape:pageopacity="0" inkscape:pageshadow="2" inkscape:window-height="480" inkscape:window-maximized="0" inkscape:window-width="640" inkscape:window-x="0" inkscape:window-y="25" inkscape:zoom="0.13169643" objecttolerance="10" pagecolor="#ffffff" showgrid="false">
	</sodipodi:namedview>
<g id="g3027" transform="matrix(1,0,0,-1,235.38983,1313.0508)">
	<path id="path3029" inkscape:connector-curvature="0" class="st0" d="M320.7,754.7v-26.6c0-3.6-1.3-6.7-3.9-9.3
		c-2.6-2.6-5.7-3.9-9.3-3.9h-26.6c-3.6,0-6.7,1.3-9.3,3.9c-2.6,2.6-3.9,5.7-3.9,9.3v26.6c0,3.6,1.3,6.7,3.9,9.3
		c2.6,2.6,5.7,3.9,9.3,3.9h26.6c3.6,0,6.7-1.3,9.3-3.9C319.4,761.4,320.7,758.3,320.7,754.7z M320.7,860.9v-26.6
		c0-3.6-1.3-6.7-3.9-9.3c-2.6-2.6-5.7-3.9-9.3-3.9h-26.6c-3.6,0-6.7,1.3-9.3,3.9c-2.6,2.6-3.9,5.7-3.9,9.3v26.6
		c0,3.6,1.3,6.7,3.9,9.3c2.6,2.6,5.7,3.9,9.3,3.9h26.6c3.6,0,6.7-1.3,9.3-3.9C319.4,867.7,320.7,864.5,320.7,860.9z M427,860.9
		v-26.6c0-3.6-1.3-6.7-3.9-9.3s-5.7-3.9-9.3-3.9h-26.6c-3.6,0-6.7,1.3-9.3,3.9s-3.9,5.7-3.9,9.3v26.6c0,3.6,1.3,6.7,3.9,9.3
		c2.6,2.6,5.7,3.9,9.3,3.9h26.6c3.6,0,6.7-1.3,9.3-3.9C425.7,867.7,427,864.5,427,860.9z M320.7,967.2v-26.6c0-3.6-1.3-6.7-3.9-9.3
		c-2.6-2.6-5.7-3.9-9.3-3.9h-26.6c-3.6,0-6.7,1.3-9.3,3.9c-2.6,2.6-3.9,5.7-3.9,9.3v26.6c0,3.6,1.3,6.7,3.9,9.3
		c2.6,2.6,5.7,3.9,9.3,3.9h26.6c3.6,0,6.7-1.3,9.3-3.9C319.4,973.9,320.7,970.8,320.7,967.2z M639.6,754.7v-26.6
		c0-3.6-1.3-6.7-3.9-9.3c-2.6-2.6-5.7-3.9-9.3-3.9h-26.6c-3.6,0-6.7,1.3-9.3,3.9c-2.6,2.6-3.9,5.7-3.9,9.3v26.6
		c0,3.6,1.3,6.7,3.9,9.3c2.6,2.6,5.7,3.9,9.3,3.9h26.6c3.6,0,6.7-1.3,9.3-3.9C638.2,761.4,639.6,758.3,639.6,754.7z M533.3,860.9
		v-26.6c0-3.6-1.3-6.7-3.9-9.3c-2.6-2.6-5.7-3.9-9.3-3.9h-26.6c-3.6,0-6.7,1.3-9.3,3.9s-3.9,5.7-3.9,9.3v26.6c0,3.6,1.3,6.7,3.9,9.3
		c2.6,2.6,5.7,3.9,9.3,3.9H520c3.6,0,6.7-1.3,9.3-3.9C532,867.7,533.3,864.5,533.3,860.9z M427,967.2v-26.6c0-3.6-1.3-6.7-3.9-9.3
		c-2.6-2.6-5.7-3.9-9.3-3.9h-26.6c-3.6,0-6.7,1.3-9.3,3.9c-2.6,2.6-3.9,5.7-3.9,9.3v26.6c0,3.6,1.3,6.7,3.9,9.3
		c2.6,2.6,5.7,3.9,9.3,3.9h26.6c3.6,0,6.7-1.3,9.3-3.9C425.7,973.9,427,970.8,427,967.2z M639.6,860.9v-26.6c0-3.6-1.3-6.7-3.9-9.3
		s-5.7-3.9-9.3-3.9h-26.6c-3.6,0-6.7,1.3-9.3,3.9s-3.9,5.7-3.9,9.3v26.6c0,3.6,1.3,6.7,3.9,9.3c2.6,2.6,5.7,3.9,9.3,3.9h26.6
		c3.6,0,6.7-1.3,9.3-3.9C638.2,867.7,639.6,864.5,639.6,860.9z M533.3,967.2v-26.6c0-3.6-1.3-6.7-3.9-9.3c-2.6-2.6-5.7-3.9-9.3-3.9
		h-26.6c-3.6,0-6.7,1.3-9.3,3.9c-2.6,2.6-3.9,5.7-3.9,9.3v26.6c0,3.6,1.3,6.7,3.9,9.3c2.6,2.6,5.7,3.9,9.3,3.9H520
		c3.6,0,6.7-1.3,9.3-3.9C532,973.9,533.3,970.8,533.3,967.2z M639.6,967.2v-26.6c0-3.6-1.3-6.7-3.9-9.3c-2.6-2.6-5.7-3.9-9.3-3.9
		h-26.6c-3.6,0-6.7,1.3-9.3,3.9c-2.6,2.6-3.9,5.7-3.9,9.3v26.6c0,3.6,1.3,6.7,3.9,9.3c2.6,2.6,5.7,3.9,9.3,3.9h26.6
		c3.6,0,6.7-1.3,9.3-3.9C638.2,973.9,639.6,970.8,639.6,967.2z M533.3,608.5h159.4v478.2H586.4v-13.3c0-11.1-3.9-20.5-11.6-28.2
		c-7.7-7.7-17.2-11.6-28.2-11.6h-186c-11.1,0-20.5,3.9-28.2,11.6c-7.7,7.7-11.6,17.2-11.6,28.2v13.3H214.5V608.5h159.4v93
		c0,3.6,1.3,6.7,3.9,9.3c2.6,2.6,5.7,3.9,9.3,3.9H520c3.6,0,6.7-1.3,9.3-3.9c2.6-2.6,3.9-5.7,3.9-9.3V608.5z M533.3,1100.1v132.8
		c0,3.6-1.3,6.7-3.9,9.3c-2.6,2.6-5.7,3.9-9.3,3.9h-26.6c-3.6,0-6.7-1.3-9.3-3.9c-2.6-2.6-3.9-5.7-3.9-9.3v-39.9H427v39.9
		c0,3.6-1.3,6.7-3.9,9.3c-2.6,2.6-5.7,3.9-9.3,3.9h-26.6c-3.6,0-6.7-1.3-9.3-3.9c-2.6-2.6-3.9-5.7-3.9-9.3v-132.8
		c0-3.6,1.3-6.7,3.9-9.3c2.6-2.6,5.7-3.9,9.3-3.9h26.6c3.6,0,6.7,1.3,9.3,3.9c2.6,2.6,3.9,5.7,3.9,9.3v39.9h53.1v-39.9
		c0-3.6,1.3-6.7,3.9-9.3c2.6-2.6,5.7-3.9,9.3-3.9H520c3.6,0,6.7,1.3,9.3,3.9C532,1093.4,533.3,1096.5,533.3,1100.1z M745.8,1113.3
		V582c0-7.2-2.6-13.4-7.9-18.7c-5.3-5.3-11.5-7.9-18.7-7.9H187.9c-7.2,0-13.4,2.6-18.7,7.9c-5.3,5.3-7.9,11.5-7.9,18.7v531.4
		c0,7.2,2.6,13.4,7.9,18.7c5.3,5.3,11.5,7.9,18.7,7.9h132.8v119.6c0,11.1,3.9,20.5,11.6,28.2c7.7,7.7,17.2,11.6,28.2,11.6h186
		c11.1,0,20.5-3.9,28.2-11.6c7.7-7.7,11.6-17.2,11.6-28.2v-119.6h132.8c7.2,0,13.4-2.6,18.7-7.9
		C743.2,1126.8,745.8,1120.5,745.8,1113.3z"/>
</g>
</svg>
