<?xml version="1.0" encoding="utf-8"?>
<!-- Generator: Adobe Illustrator 22.0.1, SVG Export Plug-In . SVG Version: 6.00 Build 0)  -->
<svg version="1.1" id="Layer_1" xmlns="http://www.w3.org/2000/svg" xmlns:xlink="http://www.w3.org/1999/xlink" x="0px" y="0px"
	 viewBox="0 0 616.1 646.3" style="enable-background:new 0 0 616.1 646.3;" xml:space="preserve">
<style type="text/css">
	.st0{fill:#95989A;}
	.st1{fill:#FFFFFF;}
	.st2{font-family:'Arial-BoldMT';}
	.st3{font-size:170.4055px;}
	.st4{fill:none;stroke:#95989A;stroke-width:5;stroke-miterlimit:10;}
</style>
<title>patient-gray</title>
<path class="st0" d="M324,500.3c-68.5-0.5-119.9-7.2-170.9-16.5c-4.3-0.8-8.4-2.5-12.4-4.4c-5.3-2.5-8.1-6.8-8.1-12.8
	c0.2-41.5,16-74.3,53.7-94c17.9-9.4,37.6-15.5,55.4-25c11.2-5.9,18.1-6.1,28.8,2.3c25.1,19.6,57.5,16.6,81.9-5.4
	c4.2-3.8,6.9-3.6,11.8-1.3c19.2,9.1,38.8,17.4,58.3,25.9c34.2,14.9,52.1,42.2,59,77.8c0.9,4.8,0.9,9.7,1,14.6
	c0.2,13.2-2.7,18.1-15.5,20.9c-19.1,4.1-38.4,7.7-57.8,9.9C375.5,496.1,341.6,498.7,324,500.3z"/>
<path class="st0" d="M306.4,133.3c27.8,0.9,51.4,7.3,64.9,31.7c5.2,9.5,7.4,21,9.5,31.9c1.5,7.6,0.5,15.6,0.7,23.4
	c0.2,5.9-1.1,11.7,5.1,16.3c2.3,1.7,2.5,7.2,2.7,11c0.6,17.5-6.2,32.3-16.7,45.8c-2.7,3.4-4.8,7.2-6.4,11.3
	c-7.7,20.4-20.1,36.5-41.1,44.1c-23.3,8.5-42.6,0.5-59.2-16.1c-6.5-6.5-36.3-58.7-37.8-67.8c-1.4-7.8-1.1-15.9-1.3-23.9
	c0-1.6,0.6-4,1.6-4.7c6.5-3.7,5-9.8,5.3-15.4c0.5-11-0.4-22.2,1.6-32.9c5.7-30.9,25.9-49.3,57-53.4
	C297.6,133.9,303,133.6,306.4,133.3z"/>
<text transform="matrix(1 0 0 1 259.2338 286.6528)" class="st1 st2 st3">+</text>
<ellipse class="st4" cx="307.6" cy="326.7" rx="295.5" ry="290.7"/>
</svg>
