<?xml version="1.0" encoding="utf-8"?>
<!-- Generator: Adobe Illustrator 22.0.1, SVG Export Plug-In . SVG Version: 6.00 Build 0)  -->
<svg version="1.1" id="Layer_1" xmlns="http://www.w3.org/2000/svg" xmlns:xlink="http://www.w3.org/1999/xlink" x="0px" y="0px"
	 viewBox="0 0 616.1 646.3" style="enable-background:new 0 0 616.1 646.3;" xml:space="preserve">
<style type="text/css">
	.st0{fill:#95989A;}
	.st1{fill:#FFFFFF;}
	.st2{font-family:'Arial-BoldMT';}
	.st3{font-size:180.0844px;}
	.st4{fill:none;stroke:#95989A;stroke-width:5;stroke-miterlimit:10;}
</style>
<title>patient-gray</title>
<path class="st0" d="M325.4,517.1c-72.4-0.5-126.7-7.6-180.6-17.4c-4.5-0.8-8.9-2.7-13.1-4.6c-5.6-2.6-8.6-7.1-8.5-13.6
	c0.2-43.8,17-78.6,56.7-99.3c18.9-9.9,39.7-16.4,58.6-26.4c11.8-6.3,19.2-6.5,30.5,2.4c26.5,20.7,60.8,17.5,86.5-5.7
	c4.5-4,7.3-3.8,12.5-1.3c20.3,9.6,41,18.4,61.6,27.4c36.1,15.8,55,44.6,62.4,82.2c1,5,1,10.3,1.1,15.4c0.3,13.9-2.8,19.2-16.4,22
	c-20.2,4.3-40.6,8.1-61.1,10.4C379.8,512.6,344,515.4,325.4,517.1z"/>
<path class="st0" d="M306.8,129.2c29.4,1,54.3,7.7,68.5,33.5c5.5,10,7.8,22.2,10,33.7c1.6,8,0.5,16.5,0.7,24.7
	c0.2,6.2-1.1,12.4,5.4,17.2c2.5,1.8,2.7,7.6,2.8,11.6c0.7,18.5-6.5,34.1-17.6,48.4c-2.8,3.6-5.1,7.6-6.7,11.9
	c-8.2,21.5-21.3,38.6-43.4,46.7c-24.6,9-45,0.5-62.6-17c-6.9-6.9-38.3-62-40-71.6c-1.4-8.3-1.1-16.8-1.4-25.3c0-1.7,0.6-4.3,1.7-4.9
	c6.8-3.9,5.3-10.3,5.6-16.3c0.5-11.6-0.4-23.5,1.7-34.8c6-32.7,27.4-52.1,60.2-56.4C297.5,129.9,303.1,129.5,306.8,129.2z"/>
<text transform="matrix(1 0 0 1 256.9203 291.2751)" class="st1 st2 st3">+</text>
<ellipse class="st4" cx="308" cy="349.3" rx="257.8" ry="253.6"/>
</svg>
