<svg id="Layer_1" data-name="Layer 1" xmlns="http://www.w3.org/2000/svg" viewBox="0 0 616.06 646.25"><defs><style>.cls-1{fill:#fff;}</style></defs><title>patient</title><path class="cls-1" d="M587.5,693c-120.55-.84-211-12.62-300.93-29-7.5-1.37-14.84-4.46-21.81-7.7-9.33-4.33-14.29-11.89-14.24-22.6.39-73,28.24-130.86,94.46-165.5,31.55-16.5,66.13-27.25,97.57-43.93,19.68-10.44,31.91-10.82,50.77,4,44.14,34.56,101.27,29.2,144.14-9.55,7.45-6.74,12.18-6.31,20.83-2.24,33.83,15.95,68.28,30.61,102.55,45.61C821,488.37,852.54,536.4,864.74,599c1.63,8.38,1.66,17.13,1.82,25.73.43,23.19-4.7,31.91-27.33,36.72-33.63,7.15-67.59,13.5-101.73,17.37C678.08,685.53,618.41,690.13,587.5,693Z" transform="translate(-250.52 -46.73)"/><path class="cls-1" d="M556.48,46.73C605.43,48.37,647,59.59,670.66,102.5c9.23,16.74,13,37,16.74,56.1,2.61,13.31.87,27.46,1.23,41.23.28,10.3-1.91,20.63,9,28.67,4.13,3,4.43,12.67,4.68,19.36,1.14,30.76-10.87,56.86-29.37,80.67a78.46,78.46,0,0,0-11.18,19.82c-13.64,35.8-35.41,64.24-72.36,77.72-40.95,14.94-75,.85-104.26-28.36-11.53-11.5-63.8-103.35-66.61-119.3-2.41-13.75-1.91-28-2.28-42.09-.07-2.78,1-7.09,2.89-8.19,11.4-6.44,8.87-17.17,9.28-27.08.8-19.33-.62-39.07,2.83-57.91,10-54.43,45.58-86.85,100.32-94C541,47.91,550.42,47.3,556.48,46.73Z" transform="translate(-250.52 -46.73)"/></svg>