<svg id="Layer_1" data-name="Layer 1" xmlns="http://www.w3.org/2000/svg" viewBox="0 0 626 620.11"><defs><style>.cls-1{fill:#fff;}</style></defs><title>phone</title><path class="cls-1" d="M291,303c.8-5.07,1.63-10.14,2.41-15.22,4.94-32.11,20.47-58.2,44.37-79.93,11.83-10.76,24.76-15.7,40.13-10.5a40.87,40.87,0,0,1,14.94,9.5c25.86,25.47,51.4,51.28,77,77,14.89,15,14.88,37.05-.13,52.32-13.06,13.29-26.31,26.39-39.59,39.46-2.44,2.4-3.19,4.29-1.39,7.64,24,44.76,52.23,86.25,90.5,120.22,22.88,20.3,48.13,37.21,74.76,52.13,5.52,3.08,11.06,6.13,16.47,9.38,2.71,1.63,4.57,1.45,6.88-.9,12.72-12.95,25.88-25.47,38.37-38.64a38.51,38.51,0,0,1,56.29.14c24.44,25.92,50,50.82,75.47,75.71a36.79,36.79,0,0,1,1.13,51.28c-14.78,15.49-30.19,30-50.43,38.41s-41.07,11.7-63,9.26c-37.38-4.16-72.2-16.19-105.81-32.64-34.6-16.94-66.18-38.44-95.63-63A702.52,702.52,0,0,1,383,514.14c-15.82-19-31.31-38.47-45.33-58.85-23.86-34.69-40.36-72.65-45.45-114.94-.33-2.79-.8-5.57-1.2-8.35Z" transform="translate(-291 -80.97)"/><path class="cls-1" d="M917,454l-36.83,2.59c-6.42-93.66-41.66-174.43-109.69-239.7s-150-96.82-244.44-99.28c.53-12.19,1-24.07,1.59-36.61,2.45,0,4.38-.06,6.31,0A405.23,405.23,0,0,1,639.63,98.13,390.54,390.54,0,0,1,852.54,257.62,392.24,392.24,0,0,1,916,441.16a40.72,40.72,0,0,0,1,4.84Z" transform="translate(-291 -80.97)"/><path class="cls-1" d="M793.84,464.41c-1.29-11.07-2.23-21.34-3.74-31.52A267,267,0,0,0,663.65,243.24c-38.58-23.07-80.38-35.66-125.21-38.5-1.68-.11-4.42-1.63-4.69-2.91-2.33-11.21-4.21-22.52-6.36-34.54,70.17,1.75,132.74,23.11,187.43,66.27,82.4,65,113.66,159.14,115,228.38Z" transform="translate(-291 -80.97)"/><path class="cls-1" d="M743.88,465.79c-11.72-.93-22.94-1.73-34.13-2.88-1-.1-2.33-2.33-2.66-3.76-3.56-15.7-5.85-31.79-10.65-47.1-7-22.43-19.47-42.11-35.16-59.73A182.08,182.08,0,0,0,611,312.72c-17.47-9.39-36.11-15.31-55.51-18.87-4.44-.82-6-2.65-6.43-7-1.07-10.55-2.63-21.06-4.07-32.15,47,5.46,88.78,22.15,124.17,53.24C720.32,352.88,741.55,410.65,743.88,465.79Z" transform="translate(-291 -80.97)"/><path class="cls-1" d="M664.19,457l-37.8-3.35c-11.77-46.7-42.29-74-89.46-83.37l13.14-34.21C606.05,345.43,655.26,391.37,664.19,457Z" transform="translate(-291 -80.97)"/></svg>