<svg id="Layer_1" data-name="Layer 1" xmlns="http://www.w3.org/2000/svg" viewBox="0 0 532.93 535.1"><defs><style>.cls-1{fill:#fff;}</style></defs><title>plaster</title><path class="cls-1" d="M528.93,116.61a135.47,135.47,0,0,1,41.65,0c31.72,8.68,61.6,20.49,84,46.34,52,60,48.58,139.16-9.63,198.09-61.36,62.12-123.3,123.68-185.2,185.27-25,24.92-48.9,51.47-76.43,73.33-44.62,35.43-95,39.29-146.46,15-44.71-21-67.1-59.55-78.57-105.75V487.28c10.52-44.43,39.41-76.27,71-107.13q98.11-96,194-194.11C453.68,154.88,485.35,127.06,528.93,116.61ZM426.61,252.86,296.51,382,424.78,514.09,556.29,382.84Zm168.58,96c35.73-29,62.61-64.73,49.2-116.45-9.85-38-35.45-62.26-74.24-70.08-50.36-10.16-83.71,16.94-111,50.67ZM255.15,417c-36.34,29.6-63.36,65.21-49.93,117,9.86,38,35.43,62.25,74.22,70.11,50.38,10.2,83.67-17,111.06-50.78Z" transform="translate(-158.26 -115)"/><circle class="cls-1" cx="369.24" cy="116.5" r="11.5"/><circle class="cls-1" cx="418.24" cy="161.5" r="11.5"/><circle class="cls-1" cx="425.24" cy="105.5" r="11.5"/><circle class="cls-1" cx="108.24" cy="422.5" r="11.5"/><circle class="cls-1" cx="164.24" cy="415.5" r="11.5"/><circle class="cls-1" cx="119.24" cy="370.5" r="11.5"/></svg>