<svg id="Layer_1" data-name="Layer 1" xmlns="http://www.w3.org/2000/svg" viewBox="0 0 682.16 577.17"><defs><style>.cls-1{fill:#fff;}</style></defs><title>video</title><path class="cls-1" d="M323.42,653.88V76.71h682.16V653.88Zm52.5-524.67V601.38H953.08V129.21" transform="translate(-323.42 -76.71)"/><path class="cls-1" d="M751.64,436.71c34.59,16.35,62.8,39.8,84.72,70.71a207.29,207.29,0,0,1,31.58,67.73c-1.05.07-1.9.16-2.75.16-16.5,0-33,0-49.49.06-2.08,0-2.9-.68-3.67-2.59-21.69-53.64-60.59-87.42-117.28-99.39-61-12.87-125.17,13.91-160.18,65.61a159.75,159.75,0,0,0-17.67,34.11c-.5,1.35-.95,2.27-2.78,2.26-17.14-.09-34.27,0-51.4-.06-.44,0-.88-.1-1.57-.18a208.88,208.88,0,0,1,42.65-82.07,213.46,213.46,0,0,1,73.63-56.32c-29-27.22-44.78-60.24-44-100.06s16.94-72.72,47.3-98.29c51.18-43.12,127.35-41.06,176.37,8,26.41,26.42,39.52,58.73,38.55,96.14S779.15,411,751.64,436.71Zm-8.35-97.61a78.75,78.75,0,1,0-78.71,78.72A78.42,78.42,0,0,0,743.29,339.1Z" transform="translate(-323.42 -76.71)"/></svg>